# xmcd CD database file
#
# Track frame offsets:
#	150
#	47296
#	69222
#	96902
#	119921
#	136894
#	144379
#	167904
#	196789
#	224769
#
# Disc length: 3449 seconds
#
# Revision: 0
# Processed by: cddbd v1.5.2PL0 Copyright (c) Steve Scherf et al.
# Submitted via: CDex 1.51
#
DISCID=940d770a
DTITLE=Vas - In The Garden of Souls
DYEAR=2000
DGENRE=New Age
TTITLE0=In the Garden of Souls
TTITLE1=Inamorala
TTITLE2=Samaya
TTITLE3=Prayer for Soheil
TTITLE4=Ceremony of Passage
TTITLE5=Beyond Despair
TTITLE6=Inward Coil
TTITLE7=Ephemere (Upon the Faded)
TTITLE8=Unbecome
TTITLE9=Sevdama
EXTD=YEAR: 2000
EXTT0=
EXTT1=
EXTT2=
EXTT3=
EXTT4=
EXTT5=
EXTT6=
EXTT7=
EXTT8=
EXTT9=
PLAYORDER=
